<?xml version="1.0" encoding="UTF-8" standalone="no"?>
<svg
   version="1.1"
   id="Layer_1"
   x="0px"
   y="0px"
   viewBox="0 0 1024 1024"
   width="1024"
   height="1024"
   xmlns="http://www.w3.org/2000/svg"
   xmlns:svg="http://www.w3.org/2000/svg"><defs
   id="defs38" />
<path
   fill="#000000"
   opacity="1"
   stroke="none"
   d="m 272.22774,308.3538 c 21.72436,-54.31859 43.28442,-108.2913 64.87533,-162.25166 0.0658,-0.1644 0.58106,-0.14891 1.40247,-0.33325 0.30496,6.6902 -1.03406,13.14248 -1.60031,19.61393 -1.39209,15.9094 -3.0679,31.79403 -4.63993,47.68758 -2.78601,28.16687 -4.03891,56.44127 -5.75747,84.67912 -0.97104,15.9552 -0.87626,31.97217 -1.55164,47.94907 -1.4296,33.81854 -1.0596,67.6467 -0.41522,101.46341 0.26968,14.15286 0.47552,28.31134 0.8327,42.46423 0.1723,6.82761 0.69119,7.1633 7.54367,7.37217 28.82752,0.8786 57.52603,3.04904 85.86325,8.75051 1.14255,0.22989 2.29166,0.43247 3.42554,0.69941 5.22842,1.23092 5.42438,1.74026 2.9808,6.72338 -2.13168,4.34702 -5.32739,7.9675 -7.89181,11.16953 86.79916,45.20129 178.6423,54.17731 274.06107,37.6424 -0.3144,3.50567 -2.33692,3.56835 -3.7298,4.04608 -29.87714,10.2467 -60.42334,17.47345 -91.93756,20.38964 -25.81159,2.38843 -51.53473,1.89991 -77.22748,-1.60314 -32.14392,-4.3827 -62.23767,-15.61652 -92.28275,-27.12299 -34.22802,-13.1084 -68.53552,-26.15265 -104.8099,-32.51386 -27.48715,-4.82025 -55.23554,-5.77972 -83.08902,-3.13476 -24.47805,2.32446 -48.40789,7.08276 -71.57904,15.36133 -5.53252,1.97662 -10.86573,4.51117 -16.32244,6.80243 -0.69719,-1.9936 0.41193,-2.39051 1.1565,-2.94379 27.83947,-20.68805 59.03366,-33.20685 93.23274,-38.62262 20.27838,-3.21127 40.63794,-5.01364 61.16827,-5.02914 2.90631,-0.002 6.24515,0.25744 6.71378,-4.14161 0.45441,-4.26547 -2.68741,-4.84176 -5.55228,-5.69589 -35.06903,-10.45511 -70.25068,-10.05633 -105.52249,-1.07257 -2.0224,0.51514 -3.99657,1.69391 -6.14087,0.86606 -0.90201,-1.57163 0.0721,-2.70978 0.63399,-3.83655 28.20265,-56.55356 51.98592,-115.02496 75.40086,-173.65655 0.18525,-0.46387 0.39633,-0.91742 0.75904,-1.7219 z"
   id="path1"
   style="fill:#ffffff;fill-opacity:1" />
<path
   fill="#000000"
   opacity="1"
   stroke="none"
   d="m 588.82146,389.74473 c -0.32007,-2.26684 0.30346,-4.66009 -0.7486,-6.68151 -1.05933,-0.81583 -2.03235,-0.55143 -3.02649,-0.41227 -7.53906,1.05512 -9.07568,-0.8746 -6.57489,-8.21811 3.27216,-9.60855 14.01117,-17.18136 25.08954,-17.69238 19.69641,-0.90854 33.44739,11.38962 36.65668,32.51254 1.98828,13.0867 -1.68085,25.09607 -6.68763,36.8187 -6.11493,14.31708 -15.27978,26.91449 -23.19659,40.2168 -4.34528,7.30126 -8.39655,14.78802 -10.35223,23.1651 -0.44843,1.92098 -0.71686,3.94686 -0.65839,5.91229 0.24103,8.09183 6.12793,11.22336 12.97815,6.82791 5.49774,-3.52765 8.93439,-8.85123 11.82556,-14.57016 4.05505,-8.02112 7.76923,-16.21173 12.92297,-23.65439 12.15009,-17.54626 29.67969,-26.77582 49.60492,-32.24167 13.79346,-3.78381 27.96222,-6.14944 41.42048,-11.2196 15.15386,-5.70887 29.03704,-13.34806 40.13799,-25.42365 0.44452,-0.48355 0.97046,-0.90716 1.51313,-1.27884 0.24579,-0.16833 0.62579,-0.14071 0.94568,-0.19778 7.62707,17.12744 -16.27002,45.26761 -50.61231,59.60416 6.74109,0.50268 21.51123,-3.43204 33.00177,-8.80817 10.37519,-4.85428 20.15619,-10.69541 29.0434,-18.58307 3.92547,17.12985 -18.48706,38.11081 -55.72345,52.85422 8.50702,-0.46134 15.99737,-1.81732 23.27337,-4.4711 7.12696,-2.59943 13.95453,-5.84699 21.14692,-10.64618 0.12365,5.09936 -1.65943,8.05212 -3.52533,10.8891 -10.54035,16.02582 -26.68323,23.56048 -44.24091,28.74124 -8.37122,2.47006 -16.90625,4.38513 -25.27161,6.89719 24.41474,0.17822 46.64893,-7.07102 68.18433,-20.56293 -2.25067,10.74423 -9.09045,16.90765 -16.67657,23.50778 5.61078,0.13446 9.75146,-2.35196 14.48016,-2.32962 28.34784,0.13406 56.09534,3.84698 83.0152,12.9382 2.80444,0.94708 6.2583,0.72711 8.65252,4.1167 -4.60846,0.78192 -8.25579,-1.22162 -12.01867,-1.89307 -25.96454,-4.63263 -52.0119,-4.42126 -78.16022,-2.1372 -37.30933,3.25891 -73.26508,13.47449 -109.72638,21.09186 -45.88476,9.58612 -91.84546,10.28533 -137.89038,1.27612 -1.65985,-0.32471 -3.69769,-0.19287 -5.57843,-3.17181 21.78198,1.8944 42.7409,1.75189 64.31995,0.49932 -0.78144,-1.37152 -0.99604,-2.01538 -1.42127,-2.45587 -14.67541,-15.20001 -14.97998,-32.61932 -7.48273,-50.95495 5.99213,-14.65476 16.07734,-26.79218 25.37104,-39.38266 7.22168,-9.78342 14.73285,-19.38456 19.94043,-30.47229 2.9187,-6.21433 5.14434,-12.63739 4.92553,-19.67441 -0.0848,-2.72852 -0.66845,-5.29489 -2.0072,-7.64603 -1.9494,-3.42337 -4.6441,-4.69012 -8.31402,-2.50854 -3.46399,2.0592 -7.15638,3.56164 -11.06202,4.5198 -1.78332,0.43747 -3.66174,0.96332 -5.25457,-1.76166 -1.02802,-1.48736 -1.63343,-2.41323 -2.23883,-3.33911 z"
   id="path2"
   style="fill:#ffffff;fill-opacity:1" />
<path
   fill="#000000"
   opacity="1"
   stroke="none"
   d="m 861.22105,615.39164 c -1.74695,-0.12188 -3.12982,0.19294 -4.33813,-0.74401 -1.04639,-1.87506 0.1217,-3.51752 0.72729,-5.16285 9.80988,-26.65338 16.97559,-54.04028 20.67231,-82.15686 4.41802,-33.6029 5.2445,-67.32937 0.78912,-101.09765 -5.98401,-45.35407 -19.20056,-88.40808 -40.27582,-128.99338 -30.2464,-58.24612 -72.47607,-105.93161 -127.06409,-142.42342 -45.53784,-30.4418 -95.51977,-49.87184 -149.68145,-58.083018 -32.05982,-4.86042 -64.26535,-5.461334 -96.57108,-1.72039 -65.50207,7.584988 -125.30777,30.269168 -179.66537,67.358148 -48.44629,33.05561 -86.69091,75.59686 -115.88036,126.35891 -23.08054,40.13828 -37.95628,83.20197 -45.38351,128.8487 -5.18855,31.88803 -5.57851,63.89477 -2.59487,96.05871 3.11209,33.54856 11.06273,65.88547 22.59778,97.43461 0.40132,1.09765 0.91936,2.15991 0.30849,3.66394 -3.3436,1.27838 -6.99173,0.55261 -10.56307,0.47119 -2.55464,-0.0583 -2.97175,-2.36292 -3.62755,-4.20429 -8.34149,-23.42163 -14.7435,-47.35608 -18.95271,-71.86914 -4.61427,-26.87201 -6.14182,-53.97653 -4.77718,-81.14755 2.32487,-46.29032 12.3147,-90.95044 30.53608,-133.64371 22.61516,-52.98807 54.76431,-99.3674 97.13699,-138.47406 44.30275,-40.88795 95.63356,-69.74112 152.95195,-88.046987 32.33853,-10.32801 65.45783,-16.388649 99.41702,-18.207023 53.18,-2.847557 104.62268,5.264366 154.34601,23.99772 44.58002,16.79559 84.61792,41.20817 120.15601,73.05092 50.94848,45.65071 87.81817,100.75206 110.77099,165.06414 12.47589,34.95648 19.88843,71.03741 22.16022,108.21249 3.30725,54.11752 -4.59698,106.55185 -22.07159,157.70401 -2.64789,7.75092 -2.63654,7.75476 -11.12348,7.75085 z"
   id="path3"
   style="fill:#ffffff;fill-opacity:1" />
<path
   fill="#000000"
   opacity="1"
   stroke="none"
   d="m 679.52428,601.72325 c -34.8501,10.68286 -69.89667,18.61151 -105.78437,22.27191 -42.3529,4.31995 -84.43719,2.45807 -126.24762,-6.05017 -39.66479,-8.07166 -77.51745,-21.82977 -115.36755,-35.67407 -26.63818,-9.74323 -53.64267,-18.24439 -81.93263,-21.50306 -24.77889,-2.85443 -49.51717,-2.19366 -74.07608,2.78364 -11.61478,2.354 -22.91014,5.78479 -34.23108,9.1781 -1.36338,0.40863 -2.70635,1.38281 -4.52802,0.40802 1.48923,-3.01209 4.30451,-4.53693 6.79204,-6.2707 20.72791,-14.44696 44.06505,-22.67742 68.51144,-27.86151 33.32192,-7.06628 66.75202,-6.6394 100.2696,-0.79815 38.15985,6.6502 74.19802,19.99261 110.02099,34.06543 35.48715,13.94079 71.67572,25.12439 109.90457,28.28479 25.14997,2.07916 50.21039,0.95221 75.25556,-2.21503 37.19885,-4.70416 72.93225,-15.33942 108.69372,-25.95068 20.43506,-6.06354 40.86444,-12.15522 62.05841,-15.08704 25.25983,-3.49426 50.14777,-2.76337 74.21283,6.77698 1.77283,0.70288 3.96222,0.83093 4.99463,2.75378 -0.0149,1.01721 -0.71051,1.29486 -1.34021,1.2345 -41.76751,-4.00256 -81.88012,4.16772 -121.44397,16.43909 -18.45123,5.72302 -36.92016,11.38897 -55.76226,17.21417 z"
   id="path4"
   style="fill:#ffffff;fill-opacity:1" />
<path
   fill="#000000"
   opacity="1"
   stroke="none"
   d="m 356.88682,248.14961 c 24.8024,36.55252 45.78406,74.72961 60.98707,115.90326 11.08859,30.03067 17.54782,61.09247 19.07366,93.08856 0.59626,12.50311 -0.93039,24.93073 -2.78036,37.29782 -0.5094,3.40528 -1.7724,4.95316 -5.62467,3.8436 -31.19393,-8.98493 -63.09909,-9.0878 -95.13696,-7.37927 -0.78735,0.042 -1.5852,-0.11283 -3.6647,-0.27814 19.32852,-39.6416 26.93844,-81.47388 28.68893,-124.42102 1.74506,-42.81397 -0.54037,-85.4429 -9.87686,-127.60713 4.01993,2.28732 5.74048,6.05276 8.33389,9.55232 z"
   id="path5"
   style="fill:#ffffff;fill-opacity:1" />
<path
   fill="#000000"
   opacity="1"
   stroke="none"
   d="m 711.02684,898.15654 c -40.4137,22.48315 -83.08002,37.57104 -128.21399,45.66778 -29.10217,5.22071 -58.4588,7.87659 -87.99606,6.13196 -69.78428,-4.12164 -134.71091,-24.07593 -194.40741,-60.72162 -55.05135,-33.79419 -99.59,-78.24927 -134.72351,-132.29809 -0.86052,-1.3238 -2.34438,-2.47498 -1.78313,-4.68598 4.15533,-1.06884 8.45792,-0.50561 12.71011,-0.38708 2.31851,0.0645 3.14655,2.26892 4.22107,3.89636 18.55158,28.09711 40.28655,53.47772 65.34319,75.9494 58.20135,52.19702 125.43887,85.99512 202.74218,99.2453 30.67572,5.258 61.53998,7.21094 92.54682,4.6582 48.73956,-4.01263 95.37335,-16.13897 139.66357,-37.17169 47.09851,-22.36627 88.23816,-52.73163 123.61414,-90.95526 13.94055,-15.06268 26.57837,-31.17596 38.06738,-48.18939 5.77863,-8.55725 8.39447,-9.47424 20.16345,-6.70801 -38.17901,61.81543 -88.73889,109.97498 -151.94781,145.56812 z"
   id="path6"
   style="fill:#ffffff;fill-opacity:1" />
<path
   fill="#000000"
   opacity="1"
   stroke="none"
   d="m 357.53178,158.57798 c 38.6384,-20.86586 79.62766,-32.88773 122.78846,-37.55705 55.08685,-5.95955 108.20538,2.09915 159.39343,23.19979 46.51385,19.17379 86.64441,47.46031 120.13501,84.95243 32.31018,36.1707 55.95092,77.31588 69.32776,124.11727 1.29077,4.51605 3.53088,8.85373 2.85192,14.02224 -34.23645,-98.18615 -98.01129,-169.89555 -193.5205,-210.79556 -96.14759,-41.17336 -191.78763,-34.42637 -285.43738,10.36102 -2.21301,-4.52493 -2.06021,-4.82525 4.4613,-8.30014 z"
   id="path7"
   style="fill:#ffffff;fill-opacity:1" />
<path
   fill="#000000"
   opacity="1"
   stroke="none"
   d="m 93.149369,669.68217 c -1.466736,-6.17041 -2.803482,-11.94623 -4.180229,-17.89502 4.70179,-1.47259 8.857246,-0.94226 12.93849,-0.63885 2.64297,0.19647 2.52154,2.84216 2.91555,4.66821 2.52518,11.703 4.92287,23.43347 7.3887,35.14941 0.39853,1.89356 0.92788,3.75953 2.19596,5.68152 2.08416,-9.14715 4.16053,-18.29614 6.25579,-27.44085 1.04034,-4.54053 2.31965,-9.03754 3.1163,-13.61945 0.76997,-4.42847 3.58178,-4.9635 7.26333,-4.737 3.57777,0.22009 7.19842,-0.68793 8.36708,4.66211 2.58874,11.85132 5.75279,23.57709 8.6985,35.35004 0.39944,1.59643 0.89258,3.16949 2.2652,4.84356 1.72513,-8.31512 3.45981,-16.62835 5.17187,-24.94622 1.03946,-5.05018 2.27243,-10.07551 2.98616,-15.17255 0.49929,-3.56549 2.15679,-4.75049 5.6063,-4.74164 12.32594,0.0317 10.43572,-0.001 8.14941,9.74323 -4.48419,19.11163 -9.16954,38.17645 -13.56271,57.30859 -0.84806,3.69336 -2.54899,4.70215 -6.19336,4.61084 -9.90566,-0.24841 -9.90618,-0.0828 -12.16793,-9.5965 -2.27011,-9.54876 -4.53128,-19.09967 -6.84051,-28.63903 -0.37931,-1.56684 -0.98598,-3.07868 -1.9726,-6.1023 -2.30703,9.58685 -4.28061,17.72076 -6.21756,25.86347 -1.0777,4.53051 -2.24165,9.04827 -3.09079,13.62298 -0.64971,3.50037 -2.11063,5.01196 -5.99044,4.85327 -11.91282,-0.4873 -9.84384,1.78925 -12.76262,-10.22906 -3.41587,-14.06501 -6.807657,-28.13587 -10.339891,-42.59876 z"
   id="path8"
   style="fill:#ffffff;fill-opacity:1" />
<path
   fill="#000000"
   opacity="1"
   stroke="none"
   d="m 362.82066,770.36302 c 0.36884,6.40832 -1.29193,12.3783 0.13132,18.91345 4.64703,-3.70276 7.64871,-8.43054 11.26929,-12.54822 4.39834,-5.00219 8.69268,-10.11572 12.71508,-15.42138 2.56882,-3.38843 5.49485,-4.95722 9.78339,-4.5448 3.42856,0.32971 6.91412,0.0666 10.05154,0.0666 1.30286,2.44909 -0.23849,3.35913 -1.14575,4.42834 -7.32886,8.6366 -14.58908,17.33502 -22.09857,25.81238 -2.42828,2.74139 -2.66025,4.77441 -0.43155,7.78448 7.83148,10.57709 15.42752,21.32886 23.07199,32.04352 1.32028,1.85059 3.01566,3.53705 3.41132,5.92194 -8.8952,3.70862 -17.20761,1.33142 -22.33438,-6.18891 -5.51288,-8.08673 -11.07389,-16.14062 -16.78107,-24.45227 -4.90399,3.39087 -8.17899,6.74774 -7.71826,12.84882 0.37414,4.95434 -0.17282,9.97937 -0.33905,14.97211 -0.0274,0.8233 0.11392,1.98101 -0.3515,2.40863 -3.53693,3.24939 -7.8729,1.33545 -11.85562,1.5036 -2.99207,0.12634 -3.14914,-2.44696 -3.15928,-4.68073 -0.0401,-8.83178 -0.041,-17.66375 -0.044,-26.49566 -0.005,-13.3313 0.10974,-26.66401 -0.0617,-39.99305 -0.0531,-4.13037 0.99368,-6.04229 5.58454,-5.98504 9.63672,0.12024 9.62973,-0.0969 9.9197,9.17908 0.0416,1.32946 0.22934,2.65423 0.38254,4.42712 z"
   id="path9"
   style="fill:#ffffff;fill-opacity:1" />
<path
   fill="#000000"
   opacity="1"
   stroke="none"
   d="m 537.66209,787.86925 c 4.37708,3.39062 2.71631,7.78851 1.99115,11.51403 -0.60321,3.09918 -4.21283,1.78852 -6.52881,1.85468 -5.8219,0.16632 -11.65625,0.19494 -17.47662,0.004 -3.52392,-0.11585 -4.81247,1.34393 -4.62213,4.71814 0.14981,2.65539 0.2478,5.34564 -0.005,7.98462 -0.42758,4.46997 1.11932,6.30059 5.85785,6.07843 7.30878,-0.34265 14.65045,0.0737 21.96863,-0.14813 4.19684,-0.1272 5.8598,1.56945 5.36126,5.60833 -0.4375,3.54413 1.88111,8.59735 -4.96386,8.55823 -13.15088,-0.0752 -26.30274,-0.0478 -39.45371,0.0244 -3.54074,0.0194 -5.07589,-1.37799 -5.06201,-5.05084 0.085,-22.47387 0.0713,-44.94836 -3.7e-4,-67.42236 -0.0107,-3.37006 1.2418,-4.80542 4.69559,-4.78107 13.31726,0.0936 26.63593,0.074 39.95349,-0.002 2.97834,-0.0169 4.0492,1.15204 4.12775,4.14411 0.24499,9.33612 0.34515,9.34845 -9.05646,9.39581 -6.32586,0.0319 -12.65332,0.0949 -18.97729,-0.0159 -3.13996,-0.055 -4.51215,1.08405 -4.47071,4.36841 0.19928,15.79053 -1.89575,12.69965 12.20966,13.01697 4.65906,0.10479 9.32147,0.064 14.45123,0.15021 z"
   id="path10"
   style="fill:#ffffff;fill-opacity:1" />
<path
   fill="#000000"
   opacity="1"
   stroke="none"
   d="m 662.97972,756.81901 c 10.6571,0.008 20.82343,0.19947 30.97772,-0.0663 4.50824,-0.11786 6.11902,1.52087 5.461,5.8352 -0.17432,1.14283 -0.15845,2.33442 -0.0762,3.49274 0.23553,3.3136 -1.42798,4.3363 -4.52497,4.29504 -7.66119,-0.10217 -15.32751,0.10749 -22.98645,-0.0578 -3.63153,-0.0784 -4.86108,1.2901 -5.11627,4.91523 -0.88189,12.52716 -1.0177,12.51733 11.22876,12.5191 4.49768,6.1e-4 8.99994,0.12701 13.49158,-0.0372 3.40241,-0.12427 4.98798,1.19574 4.7561,4.65143 -0.10009,1.49249 -0.0868,3.00116 -0.003,4.4956 0.17908,3.20185 -1.30786,4.49158 -4.47125,4.44385 -6.49512,-0.098 -13.0008,0.16901 -19.48651,-0.0961 -4.11737,-0.16821 -6.4748,0.60004 -5.59143,5.43714 0.3507,1.92059 -0.0942,3.97662 -0.0802,5.97033 0.0513,7.31421 0.0666,7.3114 7.16638,7.31421 6.9964,0.003 13.99585,0.13867 20.98797,-0.0309 3.98059,-0.0966 5.66675,1.22705 5.61841,5.4685 -0.099,8.68683 0.0976,8.67786 -8.34747,8.67365 -11.49402,-0.006 -22.98804,0.0129 -34.48206,0.0107 -6.66589,-0.001 -6.789,-0.10413 -6.79339,-6.61328 -0.0142,-21.15582 -0.0162,-42.31159 -0.003,-63.46741 0.005,-7.10101 0.0321,-7.10229 7.2807,-7.14795 1.49927,-0.009 2.99859,-0.006 4.99359,-0.006 z"
   id="path11"
   style="fill:#ffffff;fill-opacity:1" />
<path
   fill="#000000"
   opacity="1"
   stroke="none"
   d="m 894.77098,714.93644 c 0.002,-19.6347 0.13019,-38.78125 -0.0816,-57.92395 -0.0537,-4.85772 1.6455,-6.50659 6.38641,-6.21759 5.3078,0.32367 10.66626,-0.18084 15.97369,0.14551 8.237,0.50653 15.96234,2.40619 19.93274,10.81781 3.30957,7.01148 1.43091,15.77619 -4.92071,23.22791 6.05853,3.82245 9.16522,9.2984 9.15771,16.54962 -0.012,11.59064 -7.09332,19.85431 -18.65027,20.64233 -7.95575,0.54254 -15.97375,0.21698 -23.96368,0.19837 -5.33032,-0.0124 -3.38519,-4.17237 -3.83429,-7.44001 m 14.6015,-7.08862 c 3.15961,3.86743 7.37787,1.9057 11.01453,1.5766 4.03357,-0.36499 6.24768,-3.25909 6.44604,-7.55164 0.33515,-7.25177 -3.04706,-9.99157 -11.90124,-10.01184 -4.12995,-0.009 -6.22821,1.19538 -5.80762,5.68842 0.29224,3.12189 0.10559,6.28857 0.24829,10.29846 m 3.15686,-44.41968 c -2.1842,-0.0474 -3.5758,0.81641 -3.27447,3.20362 0.53759,4.25891 -1.59919,8.82831 1.47082,12.77734 0.15869,0.20422 0.6128,0.23981 0.93219,0.24829 2.63074,0.0706 5.29462,0.44202 7.82349,-0.64874 3.59881,-1.55219 5.32452,-4.33441 5.12726,-8.21912 -0.1922,-3.78491 -2.24115,-6.14972 -5.94214,-6.88897 -1.75989,-0.35145 -3.59101,-0.34614 -6.13715,-0.47242 z"
   id="path12"
   style="fill:#ffffff;fill-opacity:1" />
<path
   fill="#000000"
   opacity="1"
   stroke="none"
   d="m 447.95708,719.66569 c 0.126,0.94556 0.35849,1.961 0.0511,2.16577 -4.21658,2.80774 -14.93948,-0.0617 -17.12655,-4.57769 -2.82856,-5.84046 -5.62955,-11.69666 -8.29673,-17.61176 -1.19976,-2.66083 -2.96951,-3.85431 -5.87347,-3.38763 -3.27444,0.52618 -2.44598,3.11254 -2.48322,5.10333 -0.0995,5.32495 -0.13723,10.65631 0.0186,15.97882 0.10138,3.46124 -0.8981,5.18835 -4.77472,5.13037 -11.48984,-0.17175 -9.75506,0.65546 -9.8034,-9.44519 -0.0892,-18.64374 0.0937,-37.28979 -0.14167,-55.93103 -0.0609,-4.82263 1.54776,-6.5824 6.30966,-6.27588 7.62345,0.49066 15.29441,-0.58862 22.91474,0.73462 8.89288,1.54431 15.21042,6.05969 16.92224,15.24994 1.75024,9.39679 1.34576,18.5163 -7.65604,24.54059 -2.95275,1.97607 -2.45092,3.6452 -1.15857,6.1485 3.73996,7.24426 7.31418,14.57397 11.09797,22.17724 m -16.14515,-46.09094 c -0.0664,-0.82617 -0.0398,-1.67261 -0.21426,-2.47534 -1.23938,-5.70362 -5.08273,-7.60681 -12.14896,-7.39618 -6.53784,0.19488 -5.17645,4.52466 -5.23736,8.31201 -0.0453,2.81867 -0.001,5.63904 0.0235,8.4585 0.0123,1.41083 0.37567,2.49469 1.95709,3.04431 6.95029,2.41559 14.57324,-2 15.61996,-9.9433 z"
   id="path13"
   style="fill:#ffffff;fill-opacity:1" />
<path
   fill="#000000"
   opacity="1"
   stroke="none"
   d="m 646.31407,698.69395 c -0.0684,6.41864 -0.23169,12.41449 -0.0593,18.40064 0.10736,3.72918 -1.01574,5.37335 -5.07611,5.38592 -9.45434,0.0294 -9.45117,0.21155 -9.45001,-9.44842 0.002,-18.64179 0.13983,-37.28522 -0.0933,-55.92414 -0.0603,-4.82702 1.5224,-6.58648 6.29449,-6.27099 7.94776,0.52551 15.97589,-0.78345 23.8805,1.01037 8.89911,2.01966 14.31774,7.40595 15.83642,16.47309 1.48493,8.86621 0.4516,17.13598 -7.36725,22.83337 -2.94677,2.14722 -2.81201,3.77289 -1.34301,6.54572 3.34808,6.31982 6.44799,12.77191 9.59527,19.19647 0.70801,1.44543 1.91632,2.77466 1.40692,4.97699 -4.10138,1.08038 -8.38373,0.40301 -12.61364,0.38696 -2.26984,-0.009 -2.85279,-2.00134 -3.633,-3.63525 -3.0827,-6.45612 -6.03577,-12.97718 -9.25946,-19.3617 -2.00385,-3.96838 -4.72168,-4.18298 -8.11847,-0.56903 m 15.57367,-18.35132 c 2.33771,-3.05523 2.29602,-6.57342 1.60889,-10.039 -1.02075,-5.14862 -5.37641,-6.88232 -12.79108,-6.45239 -5.82245,0.33759 -4.32391,4.26453 -4.45654,7.48041 -0.12336,2.99109 0.012,5.99225 0.003,8.98889 -0.006,1.91992 0.6184,3.24243 2.79992,3.30762 4.33649,0.12951 8.71149,0.45898 12.836,-3.28553 z"
   id="path14"
   style="fill:#ffffff;fill-opacity:1" />
<path
   fill="#000000"
   opacity="1"
   stroke="none"
   d="m 568.49766,706.19462 c -3.94134,-12.43322 -4.07733,-24.60547 -0.66516,-36.72119 3.40717,-12.09796 13.21161,-19.54742 25.22791,-19.66815 12.46484,-0.12518 21.52441,6.61432 25.53595,19.05737 3.50793,10.88129 3.70642,21.85724 0.85034,32.914 -3.45441,13.37372 -11.88629,21.45722 -24.37933,21.987 -10.34735,0.43879 -21.1435,-3.36761 -26.56971,-17.56903 m 38.14777,-19.62518 c 0.0555,-5.3822 -0.75592,-10.62122 -2.69531,-15.65375 -2.18482,-5.66931 -5.39868,-7.98828 -10.78729,-7.91528 -5.38581,0.0729 -8.79542,2.97302 -10.39832,7.83374 -3.55511,10.7807 -3.34802,21.62927 0.30701,32.34857 1.61053,4.72339 5.17987,7.3689 10.17755,7.45575 4.98395,0.0867 8.55694,-2.40186 10.47705,-7.04883 2.12829,-5.15118 2.84314,-10.5744 2.91931,-17.0202 z"
   id="path15"
   style="fill:#ffffff;fill-opacity:1" />
<path
   fill="#000000"
   opacity="1"
   stroke="none"
   d="m 625.94591,773.84123 c -6.73029,18.32288 -13.46247,36.23016 -19.82514,54.26788 -1.57922,4.47724 -3.76471,6.78955 -8.61401,5.9715 -0.81018,-0.13672 -1.68341,-0.15332 -2.49066,-0.0133 -5.25647,0.91242 -7.50128,-1.52044 -9.20948,-6.45959 -7.50036,-21.68707 -15.47949,-43.20856 -23.2716,-64.79486 -0.54834,-1.51923 -0.98761,-3.07782 -1.65259,-5.16828 5.18982,-1.30865 9.9585,-1.00897 14.64362,-0.45147 2.32116,0.27612 2.46765,2.8999 3.09606,4.72876 5.18897,15.10162 10.32813,30.2204 15.5022,45.32721 0.52356,1.52862 0.73389,3.24231 2.63629,4.71655 1.99653,-5.82202 3.92456,-11.40375 5.82496,-16.99481 3.58691,-10.55329 7.44067,-21.02802 10.61291,-31.7049 1.52191,-5.12225 4.08441,-6.74396 9.28558,-6.53381 9.37897,0.37866 9.38617,0.0811 6.35218,8.72442 -0.93592,2.66633 -1.83802,5.34455 -2.89032,8.38471 z"
   id="path16"
   style="fill:#ffffff;fill-opacity:1" />
<path
   fill="#000000"
   opacity="1"
   stroke="none"
   d="m 794.69676,531.20488 c 19.2251,0.49273 37.58533,3.2434 55.24225,9.86474 1.6228,0.60858 3.66821,0.59345 4.59265,2.53608 -0.49719,1.44805 -1.63977,0.94671 -2.52789,0.82348 -34.40717,-4.77368 -68.448,-2.01782 -102.2099,5.25726 -36.55152,7.87604 -73.33234,13.44056 -110.86688,12.76892 -6.47449,-0.11584 -12.96741,0.93787 -19.43372,-0.21807 -0.42139,-0.0754 -0.7854,-0.47138 -1.86102,-1.15076 5.42193,-2.12 10.65405,-1.47321 15.58789,-1.92523 24.48297,-2.24286 48.21924,-8.09723 71.95831,-14.0434 27.64124,-6.9237 55.50086,-12.56354 84.06537,-13.92151 1.66174,-0.079 3.33008,-0.0198 5.45294,0.008 z"
   id="path17"
   style="fill:#ffffff;fill-opacity:1" />
<path
   fill="#000000"
   opacity="1"
   stroke="none"
   d="m 834.62303,674.02934 c 0.007,-6.49225 0.12646,-12.48731 -0.0236,-18.47565 -0.0858,-3.4237 1.24616,-4.99176 4.68439,-4.69159 0.49573,0.0433 0.99817,0.012 1.4975,0.0119 8.2998,-10e-4 8.32098,-0.002 8.33923,8.21209 0.0307,13.81513 -0.0695,27.63147 0.0912,41.44489 0.0712,6.11328 3.13891,9.57123 8.24774,10.10895 5.28027,0.55578 9.16449,-2.443 10.53192,-8.401 0.47705,-2.07868 0.60895,-4.27338 0.61871,-6.41639 0.0591,-12.98303 0.18445,-25.96887 -0.0384,-38.94824 -0.0766,-4.46661 1.18366,-6.25629 5.91467,-6.08752 8.08081,0.28826 8.54657,0.22949 8.47437,6.14849 -0.18854,15.46619 1.05871,30.97431 -0.64417,46.39081 -1.46374,13.25159 -11.10052,21.16773 -24.32061,20.71027 -13.59394,-0.4704 -22.85914,-9.49109 -23.27149,-23.04303 -0.26825,-8.81421 -0.0835,-17.64215 -0.1015,-26.96399 z"
   id="path18"
   style="fill:#ffffff;fill-opacity:1" />
<path
   fill="#000000"
   opacity="1"
   stroke="none"
   d="m 183.60432,687.75883 c 3.32765,-10.86859 6.70499,-21.30609 9.72347,-31.84649 1.12353,-3.9234 3.18082,-5.25214 7.15765,-5.1269 11.58011,0.36438 9.28797,-0.90936 12.56548,9.25782 6.06508,18.81427 11.69716,37.76818 17.49003,56.66998 0.5199,1.69641 1.46129,3.37817 0.42679,5.64831 -3.64503,0 -7.42567,-0.0142 -11.20615,0.004 -2.97184,0.0146 -3.32463,-2.3089 -3.87155,-4.37317 -2.84294,-10.73053 -0.90597,-9.99554 -13.19853,-10.03882 -1.1642,-0.004 -2.34874,0.15015 -3.48923,-0.0122 -5.37951,-0.76587 -7.92628,1.37799 -9.29812,6.83312 -2.29238,9.11567 -1.37776,7.43335 -9.86611,7.64319 -2.1114,0.0523 -4.22518,0.008 -7.28288,0.008 3.74368,-11.92987 7.25,-23.1034 10.84915,-34.66712 m 22.05213,-7.00976 c -0.92154,-2.74811 -1.10227,-5.78693 -3.42037,-8.88434 -1.38467,4.58954 -2.66882,8.49658 -3.73961,12.46124 -3.09741,11.46826 -2.75358,11.82013 9.41031,10.31006 0.26694,-0.0331 0.49394,-0.388 0.82553,-0.66449 0,-0.58667 0.1373,-1.27387 -0.0227,-1.88306 -0.92627,-3.52771 -1.92257,-7.03698 -3.0532,-11.33941 z"
   id="path19"
   style="fill:#ffffff;fill-opacity:1" />
<path
   fill="#000000"
   opacity="1"
   stroke="none"
   d="m 322.41249,681.45476 c 16.54486,5.85565 17.39502,21.75946 12.48743,31.06756 -4.72083,8.95386 -13.13681,11.60761 -22.34382,11.34711 -9.98678,-0.28247 -17.95355,-4.54767 -21.99588,-14.45154 -1.16183,-2.84644 -0.35784,-4.40546 2.3704,-5.35852 1.25634,-0.43897 2.55267,-0.85669 3.69079,-1.52319 3.37866,-1.97858 5.48743,-1.68348 7.27494,2.3692 2.15234,4.87988 7.427,6.89587 12.60318,5.63928 3.1141,-0.75604 5.52035,-2.41107 6.13272,-5.81256 0.64901,-3.60517 -0.1492,-6.81488 -3.64591,-8.49549 -4.7944,-2.30432 -9.81964,-4.12701 -14.62436,-6.41168 -11.17209,-5.3125 -15.52231,-15.6748 -11.479,-26.93493 2.79248,-7.77668 10.46591,-12.81226 20.0661,-13.07117 9.32098,-0.2514 17.03369,2.54828 21.60767,11.40735 1.77578,3.43951 1.12747,5.64838 -2.67289,6.82013 -1.26651,0.3905 -2.52914,0.89892 -3.67263,1.56195 -2.68607,1.55768 -4.53351,1.40454 -5.76514,-1.87988 -0.99692,-2.65845 -3.32431,-4.08472 -6.04279,-4.78266 -4.0166,-1.03125 -7.36431,-0.044 -9.27069,3.77472 -1.97864,3.96338 -0.53628,7.38892 3.04895,9.39453 3.75366,2.09992 7.90451,3.48993 12.23093,5.33979 z"
   id="path20"
   style="fill:#ffffff;fill-opacity:1" />
<path
   fill="#000000"
   opacity="1"
   stroke="none"
   d="m 266.78184,681.08006 c 15.16422,6.33313 20.36591,18.11768 14.02863,31.15344 -5.44693,11.20435 -22.0994,15.24317 -34.53896,8.44055 -4.56553,-2.4967 -7.74235,-6.13354 -9.93936,-10.81781 -1.36261,-2.90527 -0.81132,-4.71954 2.24689,-5.7904 1.41026,-0.49371 2.83766,-1.0246 4.12417,-1.76874 3.2891,-1.90253 5.3386,-1.42773 6.78624,2.42682 1.47245,3.92059 4.79744,5.79407 8.98267,6.0628 5.10895,0.32813 8.78824,-1.80712 9.89179,-5.75683 1.13528,-4.06329 -0.75626,-7.59338 -5.59144,-9.8324 -3.76889,-1.74518 -7.74288,-3.04901 -11.5039,-4.80932 -12.09133,-5.65918 -16.78894,-15.30823 -13.11591,-26.63282 3.28672,-10.1336 14.95186,-16.03582 26.94428,-13.44104 6.4107,1.38703 11.79635,4.34589 14.91092,10.58869 1.66159,3.3305 1.46191,5.67816 -2.35355,7.04614 -1.24899,0.44781 -2.49344,0.97382 -3.63495,1.64313 -2.86075,1.67749 -4.85751,1.42035 -6.21225,-1.98529 -1.31,-3.29328 -4.39691,-4.63086 -7.58429,-4.95075 -3.31634,-0.33282 -6.42634,0.92005 -7.69488,4.3125 -1.36333,3.64588 -0.56317,7.14423 2.97569,9.11365 3.46819,1.92999 7.27431,3.25293 11.27821,4.99768 z"
   id="path21"
   style="fill:#ffffff;fill-opacity:1" />
<path
   fill="#000000"
   opacity="1"
   stroke="none"
   d="m 487.20329,681.64262 c 12.71875,5.73615 17.64853,15.69342 13.87848,27.44586 -2.84433,8.86664 -10.95907,14.46601 -21.55685,14.87488 -10.48105,0.40436 -20.50867,-5.28827 -23.86963,-13.40063 -1.26822,-3.06104 -1.271,-5.15467 2.30856,-6.76441 7.03607,-3.16418 6.97827,-3.35785 11.53858,2.73242 2.56051,3.41956 6.04943,4.48932 10.11746,4.23719 3.9331,-0.24378 6.64673,-2.23627 7.73928,-5.98554 1.13794,-3.9049 -0.45959,-7.09381 -3.91201,-8.81921 -4.60431,-2.30103 -9.52133,-3.96637 -14.22641,-6.07782 -9.952,-4.46607 -14.45551,-13.03998 -12.49207,-23.50995 1.65824,-8.84253 8.30954,-14.89551 17.91712,-16.30542 10.52652,-1.5448 20.18212,2.5166 24.12829,10.28558 1.26587,2.49219 2.85297,5.01959 -0.99716,7.14209 -6.83408,3.76764 -8.06921,3.90241 -10.66568,-0.0807 -2.77399,-4.25549 -7.3522,-5.8399 -11.62775,-4.12719 -3.73965,1.49798 -4.76513,4.3399 -4.24585,8.04828 0.38956,2.78228 2.19651,4.45379 4.5654,5.51885 3.64234,1.63758 7.35898,3.10993 11.40024,4.78577 z"
   id="path22"
   style="fill:#ffffff;fill-opacity:1" />
<path
   fill="#000000"
   opacity="1"
   stroke="none"
   d="m 540.03459,697.44414 c -2.07544,0.24719 -3.72491,0.5404 -5.3808,0.5838 -7.44946,0.19506 -7.45105,0.16949 -7.49145,7.39697 -0.0242,4.3327 -0.13666,8.6676 -0.0364,12.99744 0.0697,3.00958 -1.16303,4.11749 -4.17749,4.0465 -11.80255,-0.27795 -10.22089,1.19953 -10.26465,-10.01556 -0.0721,-18.49762 0.0856,-36.9967 -0.10156,-55.49268 -0.0449,-4.44122 1.1477,-6.44885 5.90771,-6.12243 7.1308,0.48877 14.3415,-0.73322 21.43946,0.60235 12.86413,2.42054 18.96966,9.8006 19.1792,22.89771 0.19323,12.08032 -6.44434,20.27875 -19.07404,23.1059 m -6.67505,-33.42182 c -4.75806,-0.64374 -6.69653,1.33441 -6.25842,6.18036 0.32861,3.63501 0.079,7.32129 0.10718,10.98462 0.0134,1.75366 0.24542,3.50677 2.45294,3.6897 4.31573,0.35766 8.90149,1.05511 12.12854,-2.73212 3.01892,-3.54297 3.52142,-7.75488 1.89343,-12.19513 -1.63245,-4.45245 -5.13025,-5.80249 -10.32367,-5.92743 z"
   id="path23"
   style="fill:#ffffff;fill-opacity:1" />
<path
   fill="#000000"
   opacity="1"
   stroke="none"
   d="m 359.97413,722.40532 c -12.26409,-0.0226 -12.27743,-0.0226 -12.2871,-11.93695 -0.0146,-17.97486 0.10473,-35.95099 -0.0922,-53.92371 -0.0481,-4.39221 1.43057,-5.8421 5.76938,-5.73572 9.64707,0.2367 19.31372,0.3125 28.9538,-0.0463 5.6091,-0.20874 5.58606,2.99072 5.70837,6.98126 0.13056,4.25879 -0.96823,6.62634 -5.81814,6.38257 -5.14451,-0.25867 -10.31681,0.096 -15.47385,0.005 -3.11081,-0.055 -4.5629,1.02991 -4.48587,4.34295 0.30386,13.06885 -1.78107,11.1048 10.9491,11.19471 1.33136,0.009 2.6629,-0.0153 3.99435,-0.0132 7.50696,0.0118 9.46716,2.79572 7.44138,10.16242 -0.65656,2.38757 -2.23386,2.57379 -4.14948,2.58105 -4.65994,0.0176 -9.32144,0.12818 -13.97925,0.0389 -3.21609,-0.0616 -4.35928,1.29291 -4.27417,4.50659 0.40805,15.41236 -2.22278,12.41401 12.44486,12.76246 2.66122,0.0632 5.35949,0.2641 7.98129,-0.0677 5.14413,-0.65088 5.70444,2.20282 5.63345,6.27923 -0.0662,3.80414 0.0566,6.86359 -5.35574,6.57868 -7.46875,-0.39313 -14.97394,-0.0936 -22.96021,-0.0921 z"
   id="path24"
   style="fill:#ffffff;fill-opacity:1" />
<path
   fill="#000000"
   opacity="1"
   stroke="none"
   d="m 764.55491,663.49369 c -6.50622,-1.17895 -10.591,0.62507 -12.62902,6.42689 -3.92499,11.17358 -3.99646,22.54541 -0.0286,33.7752 1.51795,4.29602 4.71735,7.00367 9.41278,6.91693 4.80609,-0.0888 8.4195,-2.56732 9.50049,-7.35882 1.0647,-4.71893 3.54205,-4.10083 6.9635,-2.90631 8.63574,3.01489 8.80164,3.2445 4.46057,11.31439 -8.24426,15.32587 -30.82409,16.4035 -41.10009,1.94971 -3.25312,-4.57569 -5.22748,-9.73743 -5.83674,-15.25177 -1.36261,-12.33374 -1.94427,-24.69245 4.43134,-36.04651 5.42175,-9.65528 14.18841,-13.29737 24.84558,-12.32813 9.56238,0.86969 15.76544,6.35089 19.16809,15.27875 1.35309,3.55017 0.77332,5.73785 -3.16321,6.61456 -1.45544,0.32416 -2.8883,0.8274 -4.2666,1.40393 -2.90381,1.2146 -4.73987,0.57642 -5.53186,-2.67205 -0.79401,-3.25611 -2.75738,-5.64911 -6.2262,-7.11677 z"
   id="path25"
   style="fill:#ffffff;fill-opacity:1" />
<path
   fill="#000000"
   opacity="1"
   stroke="none"
   d="m 445.12291,810.94975 c 0.001,1.81836 0.0916,3.15649 -0.0117,4.47955 -0.27554,3.53162 1.43024,4.63855 4.78497,4.55219 6.48587,-0.16718 12.98767,0.1532 19.46631,-0.12067 4.9057,-0.20733 5.99472,2.22235 5.70578,6.44238 -0.25665,3.74854 0.82526,7.89112 -5.39999,7.77363 -11.81076,-0.22278 -23.63001,-0.0985 -35.44422,0.0251 -3.78003,0.0395 -5.40902,-1.39416 -5.38845,-5.28448 0.11615,-21.96613 0.15216,-43.93317 0.0835,-65.89948 -0.0136,-4.34674 1.37479,-6.29755 6.08292,-6.16119 10.96258,0.31744 10.09466,-1.17334 10.10754,9.77234 0.0172,14.64453 0.0106,29.28912 0.0133,44.42065 z"
   id="path26"
   style="fill:#ffffff;fill-opacity:1" />
<path
   fill="#000000"
   opacity="1"
   stroke="none"
   d="m 731.04893,660.67644 c -0.75885,4.03967 -3.68976,3.2937 -6.03167,3.34027 -12.08094,0.24017 -10.63501,-0.89185 -10.67279,10.83782 -0.0446,13.8227 -0.20234,27.65015 0.10394,41.46631 0.10943,4.93921 -1.63214,6.69672 -6.31665,6.09619 -0.98297,-0.12597 -2.00342,-0.0942 -2.99402,-10e-4 -3.68231,0.34613 -4.8363,-1.17267 -4.78516,-4.93036 0.21509,-15.81293 0.49335,-31.62793 -0.13867,-47.44782 -0.17926,-4.48791 -1.58636,-6.53344 -6.15649,-5.96008 -0.98505,0.12366 -1.99628,0.0399 -2.99549,0.0483 -7.0711,0.0599 -7.11346,-0.21893 -7.28155,-7.22693 -0.11066,-4.61133 1.66199,-6.14728 6.16034,-6.06073 10.65448,0.20496 21.31592,0.0301 31.97455,0.039 9.23901,0.008 9.23901,0.0261 9.13366,9.79914 z"
   id="path27"
   style="fill:#ffffff;fill-opacity:1" />
<path
   fill="#000000"
   opacity="1"
   stroke="none"
   d="m 808.96147,722.41185 c -3.99365,0.001 -7.49127,-0.08 -10.98297,0.0288 -2.8866,0.09 -4.27393,-0.99445 -4.26856,-4.03803 0.0376,-21.1366 0.0253,-42.27338 -0.0424,-63.40997 -0.01,-3.07306 1.50605,-3.94403 4.29481,-4.13672 9.93573,-0.68665 10.18048,-0.53564 10.18066,9.21478 3e-4,14.64594 0.1134,29.29382 -0.10449,43.93665 -0.0635,4.2724 1.14178,6.14557 5.62738,5.77044 3.80273,-0.31799 7.65283,-0.0217 11.47723,-0.14447 2.93958,-0.0944 4.35126,1.0716 4.15308,4.10175 -0.1084,1.6571 -0.11145,3.33362 0.002,4.99011 0.19501,2.84662 -1.12231,3.80524 -3.86157,3.7381 -5.32269,-0.13043 -10.65076,-0.047 -16.47516,-0.0514 z"
   id="path28"
   style="fill:#ffffff;fill-opacity:1" />
<path
   fill="#000000"
   opacity="1"
   stroke="none"
   d="m 546.70103,881.63371 c -2.52685,6.38617 -5.00329,12.38019 -7.21881,18.46918 -1.08667,2.98645 -3.17572,3.49279 -5.88305,3.31207 -2.7226,-0.18182 -5.74775,0.68481 -7.1156,-2.98309 -5.34211,-14.32514 -10.77875,-28.61493 -16.14741,-42.93024 -0.21484,-0.57288 -0.0964,-1.27069 -0.13092,-1.86963 8.68531,-2.48401 10.4076,-1.61053 13.09241,6.17828 2.97272,8.62384 6.04822,17.21222 9.29181,26.42029 2.15723,-2.28247 2.50952,-4.78808 3.33228,-6.98694 2.38733,-6.38006 4.64001,-12.81103 6.901,-19.23767 2.82843,-8.03936 4.2326,-8.76794 13.21228,-6.37316 -2.29883,8.82806 -6.25775,17.06103 -9.33399,26.00091 z"
   id="path29"
   style="fill:#ffffff;fill-opacity:1" />
<path
   fill="#000000"
   opacity="1"
   stroke="none"
   d="m 490.98952,900.01152 c -7.56656,5.19024 -15.98023,5.73675 -22.25052,1.26709 -6.63623,-4.73047 -8.8512,-11.48956 -7.52353,-19.33747 1.52524,-9.01587 6.21747,-13.79693 14.66406,-15.48895 10.77481,-2.15839 21.13779,8.06256 19.38266,18.94849 -0.45929,2.84869 -2.25061,2.89068 -4.31238,2.89416 -6.276,0.0106 -12.552,0.004 -18.90118,0.004 0.95331,7.39563 6.66855,9.57495 13.4252,5.31048 2.99606,-1.89099 4.54361,-0.59582 6.42288,1.20362 2.02332,1.93713 1.23752,3.50671 -0.90719,5.19873 M 475.9908,880.99903 c 2.89404,-0.22656 5.88528,0.46106 8.75174,-0.60571 0.0773,-3.56195 -1.94593,-5.1015 -4.67316,-5.84851 -2.61984,-0.71777 -5.03183,0.0627 -6.7294,2.14966 -1.92767,2.37024 -2.0625,4.29462 2.65082,4.30456 z"
   id="path30"
   style="fill:#ffffff;fill-opacity:1" />
<path
   fill="#000000"
   opacity="1"
   stroke="none"
   d="m 729.23686,799.26414 c -4.62036,-0.53247 -3.58435,-3.70221 -3.41681,-6.1629 0.21015,-3.08722 2.93982,-2.85339 4.95545,-2.87525 12.78839,-0.13855 25.57849,-0.13299 38.36798,-0.15954 4.65075,-0.01 9.302,0.0639 13.95233,0.0222 3.44549,-0.0309 5.14306,1.29468 5.10614,5.03174 -0.0378,3.82679 -2.16174,4.22077 -5.17554,4.21045 -17.77276,-0.0609 -35.5459,-0.0371 -53.78955,-0.0667 z"
   id="path31"
   style="fill:#ffffff;fill-opacity:1" />
<path
   fill="#000000"
   opacity="1"
   stroke="none"
   d="m 290.95903,799.32328 c -10.1561,-0.009 -19.8122,-0.0276 -29.46829,-0.0226 -3.10761,0.002 -5.94721,0.21112 -5.98269,-4.45294 -0.034,-4.46869 2.43435,-4.732 5.74358,-4.72571 16.31537,0.0309 32.63092,0.013 48.94629,-0.0353 3.53476,-0.0104 6.29459,0.47052 6.01138,5.11035 -0.18014,2.95172 -1.32794,4.16748 -4.27304,4.13147 -6.82473,-0.0836 -13.65133,-0.0134 -20.97723,-0.005 z"
   id="path32"
   style="fill:#ffffff;fill-opacity:1" />
<path
   fill="#000000"
   opacity="1"
   stroke="none"
   d="m 451.30119,271.20323 c -5.06756,-2.37192 -9.86719,-4.49936 -15.18069,-3.55173 -4.98572,0.88919 -9.87177,2.33731 -15.02228,3.59326 3.05008,-8.27176 14.30417,-14.43171 23.26987,-12.595 3.92721,0.80454 6.41589,0.19129 9.40066,-2.8491 6.88718,-7.01551 15.60987,-8.20415 24.9173,-5.59684 0.76007,0.21292 1.58319,0.59436 1.51416,1.74938 -0.5766,1.59576 -2.13306,1.18052 -3.34439,1.45292 -8.57562,1.92858 -15.24728,6.48143 -19.31488,14.3752 -1.30954,2.54145 -2.92493,3.94141 -6.23975,3.42191 z"
   id="path33"
   style="fill:#ffffff;fill-opacity:1" />
<path
   fill="#000000"
   opacity="1"
   stroke="none"
   d="m 534.30485,293.17106 c 9.47931,-4.47345 17.91834,-4.08218 22.29023,0.85581 -0.82264,1.44943 -2.30475,1.02603 -3.54407,1.19781 -7.56806,1.04883 -14.05176,3.91666 -18.18195,10.75537 -2.06305,3.41596 -4.34729,4.02594 -7.66656,1.31125 -6.05823,-4.95471 -13.21491,-4.69775 -20.42114,-3.59906 -1.45237,0.22141 -2.8458,0.9657 -4.29947,0.36292 -0.58756,-0.65183 -0.51303,-1.33408 -0.0201,-1.81299 5.8041,-5.63916 12.67535,-9.02219 20.72479,-6.80524 4.38025,1.20642 7.64312,1.02097 11.11828,-2.26587 z"
   id="path34"
   style="fill:#ffffff;fill-opacity:1" />
<path
   fill="#000000"
   opacity="1"
   stroke="none"
   d="m 588.56785,389.55067 c 0.85901,1.11994 1.46442,2.04581 2.2472,3.25046 0.25341,1.90125 -0.33728,3.2771 -1.70056,4.11267 -6.76899,4.14877 -13.21741,8.91437 -20.94001,11.27539 -1.7182,0.5253 -3.69616,1.19791 -4.85064,-0.96078 -0.95661,-1.78864 0.1784,-3.22043 1.32715,-4.42908 4.90411,-5.15973 10.03753,-10.05802 12.72399,-16.97537 1.11249,-2.86448 6.94611,-2.61298 9.00305,0.10965 0.78333,1.03677 1.29865,2.27603 2.18982,3.61706 z"
   id="path35"
   style="fill:#ffffff;fill-opacity:1" />
<path
   fill="#000000"
   opacity="1"
   stroke="none"
   d="m 482.21507,350.21907 c -2.21295,0.0145 -4.00262,0.0145 -5.95334,0.0145 2.98111,-5.18579 11.79874,-8.06094 18.47034,-5.40844 4.39856,1.74884 7.8194,1.67916 12.0589,-0.57593 5.5961,-2.97672 13.9053,-0.7049 17.35977,3.80667 -1.28302,1.59936 -3.07379,0.87048 -4.62256,0.89777 -5.42297,0.0956 -10.13513,1.71917 -13.61236,6.06304 -2.62323,3.27698 -5.11447,3.62378 -8.23746,0.45795 -4.08331,-4.13934 -9.30957,-5.55521 -15.46329,-5.25552 z"
   id="path36"
   style="fill:#ffffff;fill-opacity:1" />
<path
   fill="#000000"
   opacity="1"
   stroke="none"
   d="m 512.23119,898.79551 c -1.27225,4.10706 -3.76166,6.01758 -7.62186,4.89948 -3.25861,-0.94391 -4.86347,-3.40131 -4.14511,-6.90961 0.71148,-3.47485 3.11047,-5.09442 6.48489,-4.89117 3.91223,0.23553 5.29874,2.88904 5.28208,6.9013 z"
   id="path37"
   style="fill:#ffffff;fill-opacity:1" />
<path
   fill="#000000"
   opacity="1"
   stroke="none"
   d="m 556.98534,903.16435 c -2.86103,-2.36536 -4.06409,-4.93445 -2.37116,-8.11914 1.19458,-2.24719 3.23029,-3.41333 5.77594,-3.15314 2.75751,0.2818 4.54285,1.92322 5.2135,4.64423 1.18695,4.81585 -2.6759,7.98926 -8.61828,6.62805 z"
   id="path38"
   style="fill:#ffffff;fill-opacity:1" />
</svg>
